Coordinates
version=1
nRows=20
nColumns=17
inDegrees=yes

Units are S.I. units (second, meters, Newtons, ...)
If the header above contains a line with 'inDegrees', this indicates whether rotational values are in degrees (yes) or radians (no).

endheader
time	pelvis_tilt	pelvis_tx	pelvis_ty	hip_flexion_l	hip_flexion_r	knee_angle_l	knee_angle_r	ankle_angle_l	ankle_angle_r	lumbar_extension	FC_flexion	FC_adduction	FC_rotation	FC_tx	FC_ty	FC_tz
      1.28000000	    102.76809359	     -0.31867538	      1.04147234	     72.45868103	    -14.16000450	   -115.43648798	     -1.91089846	    -26.86471501	    -48.71109144	    -27.72285176	     -6.48609243	     -8.14288931	     95.24113523	     -0.14162203	     -0.11542898	     -0.21020837
      1.29000000	    102.76672134	     -0.31868770	      1.04146117	     72.44839664	    -14.15852596	   -115.33279202	     -1.91805685	    -26.86534122	    -48.71240752	    -27.72306009	     -6.46530009	     -8.12096595	     95.27053257	     -0.14164393	     -0.11547950	     -0.21032360
      1.30000000	    102.76700135	     -0.31868064	      1.04146053	     72.44113533	    -14.16084112	   -115.25955283	     -1.91469404	    -26.86384449	    -48.71117542	    -27.72011434	     -6.45332732	     -8.10045270	     95.25928717	     -0.14155559	     -0.11560629	     -0.21044320
      1.31000000	    102.76575027	     -0.31866236	      1.04144739	     72.43342695	    -14.15698370	   -115.16223106	     -1.91777908	    -26.86746977	    -48.70942311	    -27.71958609	     -6.45318580	     -8.02721249	     95.21891634	     -0.14151490	     -0.11561597	     -0.21052477
      1.32000000	    102.76198549	     -0.31865812	      1.04143558	     72.43109702	    -14.15052079	   -115.07896984	     -1.92120032	    -26.88777190	    -48.69970418	    -27.71923698	     -6.49625732	     -7.97488084	     95.15114821	     -0.14141096	     -0.11568178	     -0.21060307
      1.33000000	    102.75883014	     -0.31865680	      1.04142818	     72.42952556	    -14.14489152	   -114.98385602	     -1.92347349	    -26.94337570	    -48.70459698	    -27.71016226	     -6.43028049	     -7.93095799	     95.10429174	     -0.14154421	     -0.11571126	     -0.21068951
      1.34000000	    102.75498114	     -0.31865504	      1.04138992	     72.42791161	    -14.13257553	   -114.88434740	     -1.93223038	    -26.92544641	    -48.70564382	    -27.71606436	     -6.46514171	     -7.92449807	     95.06700488	     -0.14145899	     -0.11572051	     -0.21082323
      1.35000000	    102.74989668	     -0.31863887	      1.04138077	     72.42419575	    -14.12848838	   -114.78970631	     -1.92853631	    -26.92024584	    -48.70515140	    -27.71463879	     -6.44642443	     -7.89163716	     95.02556214	     -0.14143391	     -0.11566550	     -0.21089130
      1.36000000	    102.75076173	     -0.31864566	      1.04134832	     72.42213920	    -14.12606495	   -114.68346702	     -1.92699405	    -26.91670896	    -48.70437646	    -27.71520484	     -6.43458225	     -7.88775116	     95.01939937	     -0.14152817	     -0.11572586	     -0.21100151
      1.37000000	    102.75056783	     -0.31864966	      1.04134891	     72.41677107	    -14.12611449	   -114.58123173	     -1.92778599	    -26.91623008	    -48.70430630	    -27.71422414	     -6.41161106	     -7.89713729	     95.00192828	     -0.14163216	     -0.11585963	     -0.21098844
      1.38000000	    102.74794219	     -0.31863912	      1.04129604	     72.42875346	    -14.11082999	   -114.52597268	     -1.94652629	    -26.90738972	    -48.70412406	    -27.72090942	     -6.32471688	     -7.91005718	     94.97038553	     -0.14151087	     -0.11600224	     -0.21108079
      1.39000000	    102.73912166	     -0.31861595	      1.04126476	     72.43114266	    -14.09869461	   -114.41986731	     -1.95011837	    -26.90795802	    -48.70616347	    -27.71591364	     -6.24573705	     -7.90791071	     94.95498363	     -0.14151105	     -0.11604135	     -0.21116824
      1.40000000	    102.71906173	     -0.31860382	      1.04126855	     72.44802421	    -14.08212087	   -114.29174701	     -1.93727742	    -26.92661701	    -48.70980266	    -27.69572134	     -6.17968598	     -7.88216076	     94.90629938	     -0.14163695	     -0.11620730	     -0.21121163
      1.41000000	    102.72028597	     -0.31859286	      1.04120299	     72.45303338	    -14.06301557	   -114.17301926	     -1.96776943	    -26.95636022	    -48.70942013	    -27.71238935	     -6.10960468	     -7.81511524	     94.84057664	     -0.14165147	     -0.11629835	     -0.21124505
      1.42000000	    102.71949515	     -0.31857393	      1.04119282	     72.46178989	    -14.06545265	   -114.08719925	     -1.96032593	    -26.96035652	    -48.70784145	    -27.70982686	     -6.09061872	     -7.73407090	     94.75939495	     -0.14168998	     -0.11649638	     -0.21129589
      1.43000000	    102.70965855	     -0.31856117	      1.04117202	     72.47725415	    -14.04849335	   -114.00946678	     -1.96935744	    -26.94201543	    -48.71154157	    -27.70182550	     -5.94570808	     -7.67487306	     94.69475631	     -0.14174660	     -0.11656920	     -0.21138145
      1.44000000	    102.70658438	     -0.31856024	      1.04109891	     72.48500170	    -14.03720167	   -113.91971774	     -1.97362119	    -26.93476319	    -48.71051559	    -27.70914603	     -5.90546010	     -7.64480588	     94.61476295	     -0.14165191	     -0.11660058	     -0.21139167
      1.45000000	    102.70404048	     -0.31856377	      1.04109278	     72.47114726	    -14.03091486	   -113.79640204	     -1.97785297	    -26.93157507	    -48.70953502	    -27.70527775	     -5.85830928	     -7.64356936	     94.55158688	     -0.14172900	     -0.11655592	     -0.21144276
      1.46000000	    102.70809665	     -0.31856500	      1.04105014	     72.48198395	    -14.02969163	   -113.64202269	     -1.97953816	    -26.93846731	    -48.70829123	    -27.71490067	     -5.89364592	     -7.63405577	     94.47569364	     -0.14188855	     -0.11663650	     -0.21153041
      1.47000000	    102.70553283	     -0.31854303	      1.04106382	     72.48599336	    -14.03608734	   -113.54120430	     -1.96398030	    -26.93650995	    -48.70835739	    -27.71147379	     -5.86995891	     -7.63072382	     94.41289665	     -0.14185214	     -0.11663895	     -0.21155682
